<?xml version="1.0"?>
<svg xmlns="http://www.w3.org/2000/svg" xmlns:xlink="http://www.w3.org/1999/xlink" xmlns:svgjs="http://svgjs.com/svgjs" version="1.1" width="512" height="512" x="0" y="0" viewBox="0 0 512.0001 512" style="enable-background:new 0 0 512 512" xml:space="preserve" class=""><g>
<g xmlns="http://www.w3.org/2000/svg" id="surface1">
<path d="M 130.460938 124.097656 C 127.582031 124.097656 124.785156 122.589844 123.265625 119.90625 C 121.019531 115.9375 122.414062 110.898438 126.382812 108.648438 L 173.800781 81.804688 C 177.769531 79.558594 182.808594 80.957031 185.054688 84.925781 C 187.304688 88.894531 185.90625 93.933594 181.9375 96.183594 L 134.523438 123.023438 C 133.234375 123.753906 131.839844 124.097656 130.460938 124.097656 Z M 130.460938 124.097656 " style="" fill="#373c41" data-original="#373c41" class=""/>
<path d="M 182.882812 112.460938 C 179.101562 112.460938 175.6875 109.847656 174.832031 106 L 167.726562 74.140625 C 166.730469 69.691406 169.535156 65.273438 173.988281 64.28125 C 178.441406 63.285156 182.855469 66.09375 183.847656 70.546875 L 190.953125 102.402344 C 191.945312 106.855469 189.140625 111.269531 184.691406 112.261719 C 184.085938 112.398438 183.480469 112.460938 182.882812 112.460938 Z M 182.882812 112.460938 " style="" fill="#373c41" data-original="#373c41" class=""/>
<path d="M 238.125 153.339844 L 298.4375 153.597656 L 298.785156 71.804688 C 298.820312 63 291.714844 55.832031 282.910156 55.796875 L 254.484375 55.675781 C 245.679688 55.636719 238.511719 62.742188 238.472656 71.550781 Z M 238.125 153.339844 " style="" fill="#64afff" data-original="#64afff" class=""/>
<path d="M 288.34375 23.597656 C 288.34375 36.632812 277.777344 47.199219 264.742188 47.199219 C 251.710938 47.199219 241.144531 36.632812 241.144531 23.597656 C 241.144531 10.566406 251.710938 0 264.742188 0 C 277.777344 0 288.34375 10.566406 288.34375 23.597656 Z M 288.34375 23.597656 " style="" fill="#ffb69e" data-original="#ffb69e" class=""/>
<path d="M 226.636719 105.878906 L 178.65625 95.984375 C 172.882812 94.796875 169.167969 89.148438 170.355469 83.378906 C 171.546875 77.605469 177.191406 73.886719 182.964844 75.078125 L 227.113281 84.183594 L 266.855469 62.519531 C 272.03125 59.695312 278.511719 61.605469 281.335938 66.78125 C 284.15625 71.957031 282.246094 78.441406 277.070312 81.261719 L 233.898438 104.796875 C 231.679688 106.007812 229.101562 106.390625 226.636719 105.878906 Z M 226.636719 105.878906 " style="" fill="#ffb69e" data-original="#ffb69e" class=""/>
<path d="M 281.335938 66.78125 C 278.515625 61.605469 272.03125 59.695312 266.855469 62.519531 L 244.167969 74.886719 L 253.710938 93.996094 L 277.074219 81.261719 C 282.25 78.4375 284.15625 71.957031 281.335938 66.78125 Z M 281.335938 66.78125 " style="" fill="#4699f2" data-original="#4699f2"/>
<path d="M 279.183594 110.671875 L 373.957031 60.570312 C 376.601562 59.171875 379.875 59.921875 381.636719 62.339844 C 387.773438 70.75 399.972656 90.671875 393.917969 109.277344 L 376.132812 113.847656 Z M 279.183594 110.671875 " style="" fill="#373c41" data-original="#373c41" class=""/>
<path d="M 120.648438 142.585938 C 118.757812 142.585938 116.84375 142.113281 115.082031 141.117188 C 109.613281 138.039062 107.679688 131.109375 110.761719 125.644531 L 170.261719 20.046875 C 174.449219 12.617188 182.335938 8.011719 190.855469 8.011719 C 190.878906 8.011719 190.898438 8.011719 190.921875 8.011719 C 197.195312 8.027344 202.265625 13.128906 202.25 19.402344 C 202.234375 25.667969 197.148438 30.734375 190.890625 30.734375 C 190.878906 30.734375 190.863281 30.730469 190.855469 30.734375 C 190.527344 30.734375 190.222656 30.910156 190.058594 31.199219 L 130.554688 136.800781 C 128.46875 140.503906 124.613281 142.585938 120.648438 142.585938 Z M 120.648438 142.585938 " style="" fill="#b4d7dc" data-original="#b4d7dc"/>
<path d="M 309.433594 142.582031 C 303.160156 142.582031 298.070312 137.496094 298.070312 131.222656 L 298.070312 58.21875 C 298.070312 51.945312 303.160156 46.855469 309.433594 46.855469 C 315.707031 46.855469 320.792969 51.945312 320.792969 58.21875 L 320.792969 131.222656 C 320.792969 137.496094 315.707031 142.582031 309.433594 142.582031 Z M 309.433594 142.582031 " style="" fill="#373c41" data-original="#373c41" class=""/>
<path d="M 416 164.691406 L 416.085938 131.5625 C 416.117188 119.289062 406.195312 109.3125 393.917969 109.277344 L 61.5 108.398438 C 37.710938 108.335938 18.371094 127.570312 18.308594 151.359375 L 18.273438 164.460938 C 7.660156 168.183594 0.03125 178.269531 0 190.160156 C -0.0390625 205.242188 12.152344 218.515625 27.234375 218.554688 L 409.621094 218.621094 C 424.675781 218.625 436.894531 206.441406 436.933594 191.386719 L 436.933594 191.320312 C 436.96875 178.40625 428.03125 167.570312 416 164.691406 Z M 416 164.691406 " style="" fill="#5e5655" data-original="#fa503c" class=""/>
<path d="M 0.0078125 190 C 0.0078125 190.054688 0 190.105469 0 190.160156 C -0.0390625 205.242188 12.152344 218.515625 27.234375 218.554688 L 409.621094 218.625 C 424.675781 218.625 436.894531 206.441406 436.933594 191.386719 L 436.933594 191.320312 C 436.933594 190.875 436.898438 190.4375 436.878906 190 Z M 0.0078125 190 " style="" fill="#403432" data-original="#e0321d" class=""/>
<path d="M 371.382812 218.34375 C 371.382812 241.347656 352.730469 259.996094 329.726562 259.996094 C 306.722656 259.996094 288.074219 241.347656 288.074219 218.34375 C 288.074219 195.335938 306.722656 176.6875 329.726562 176.6875 C 352.730469 176.6875 371.382812 195.335938 371.382812 218.34375 Z M 371.382812 218.34375 " style="" fill="#373c41" data-original="#373c41" class=""/>
<path d="M 138.910156 217.726562 C 138.910156 240.730469 120.261719 259.378906 97.257812 259.378906 C 74.253906 259.378906 55.605469 240.730469 55.605469 217.726562 C 55.605469 194.722656 74.253906 176.074219 97.257812 176.074219 C 120.261719 176.074219 138.910156 194.722656 138.910156 217.726562 Z M 138.910156 217.726562 " style="" fill="#373c41" data-original="#373c41" class=""/>
<path d="M 113.953125 217.726562 C 113.953125 226.949219 106.476562 234.421875 97.257812 234.421875 C 88.035156 234.421875 80.5625 226.949219 80.5625 217.726562 C 80.5625 208.507812 88.035156 201.03125 97.257812 201.03125 C 106.476562 201.03125 113.953125 208.507812 113.953125 217.726562 Z M 113.953125 217.726562 " style="" fill="#9ba3ab" data-original="#82878c" class=""/>
<path d="M 346.421875 217.726562 C 346.421875 226.949219 338.949219 234.421875 329.726562 234.421875 C 320.507812 234.421875 313.03125 226.949219 313.03125 217.726562 C 313.03125 208.507812 320.507812 201.03125 329.726562 201.03125 C 338.949219 201.03125 346.421875 208.507812 346.421875 217.726562 Z M 346.421875 217.726562 " style="" fill="#9ba3ab" data-original="#82878c" class=""/>
<path d="M 254.191406 153.375 L 218.46875 153.375 C 212.191406 153.375 207.105469 148.285156 207.105469 142.011719 C 207.105469 135.738281 212.191406 130.652344 218.46875 130.652344 L 254.191406 130.652344 C 260.464844 130.652344 265.550781 135.738281 265.550781 142.011719 C 265.550781 148.285156 260.464844 153.375 254.191406 153.375 Z M 254.191406 153.375 " style="" fill="#403432" data-original="#e0321d" class=""/>
<path d="M 500.597656 166.382812 L 453.242188 166.382812 C 446.945312 166.382812 441.84375 161.277344 441.84375 154.980469 C 441.84375 148.683594 446.945312 143.578125 453.242188 143.578125 L 500.597656 143.578125 C 506.894531 143.578125 512 148.683594 512 154.980469 C 512 161.277344 506.894531 166.382812 500.597656 166.382812 Z M 500.597656 166.382812 " style="" fill="#beebfa" data-original="#beebfa" class=""/>
<path d="M 476.921875 125.035156 L 438.035156 125.035156 C 431.738281 125.035156 426.632812 119.929688 426.632812 113.632812 C 426.632812 107.335938 431.738281 102.230469 438.035156 102.230469 L 476.921875 102.230469 C 483.21875 102.230469 488.324219 107.335938 488.324219 113.632812 C 488.324219 119.929688 483.21875 125.035156 476.921875 125.035156 Z M 476.921875 125.035156 " style="" fill="#beebfa" data-original="#beebfa" class=""/>
<path d="M 496.191406 205.507812 L 468.660156 205.507812 C 462.363281 205.507812 457.261719 200.402344 457.261719 194.105469 C 457.261719 187.808594 462.363281 182.703125 468.660156 182.703125 L 496.191406 182.703125 C 502.488281 182.703125 507.59375 187.808594 507.59375 194.105469 C 507.59375 200.402344 502.488281 205.507812 496.191406 205.507812 Z M 496.191406 205.507812 " style="" fill="#beebfa" data-original="#beebfa" class=""/>
<path d="M 50.828125 164.386719 C 57.183594 164.386719 62.335938 159.234375 62.335938 152.878906 L 62.335938 137.414062 C 62.335938 131.0625 57.183594 125.910156 50.828125 125.910156 L 26.71875 125.910156 C 21.460938 133.03125 18.335938 141.828125 18.308594 151.359375 L 18.273438 164.382812 L 50.828125 164.382812 Z M 50.828125 164.386719 " style="" fill="#f18d11" data-original="#e69632" class=""/>
</g>
</g></svg>
