<?xml version="1.0"?>
<svg xmlns="http://www.w3.org/2000/svg" xmlns:xlink="http://www.w3.org/1999/xlink" xmlns:svgjs="http://svgjs.com/svgjs" version="1.1" width="512" height="512" x="0" y="0" viewBox="0 0 512.045 512.045" style="enable-background:new 0 0 512 512" xml:space="preserve" class=""><g>
<path xmlns="http://www.w3.org/2000/svg" d="M512.045,256.352c0.021-30.821-17.882-57.481-45.992-69.167c-2.9-5.571-42.058-81.142-42.058-81.142  c-13.325-25.335-38.131-40.461-66.356-40.461h-203.25c-28.204,0-53.001,15.11-66.333,40.418  c-8.223,15.611-43.671,83.023-43.671,83.023c-27.413,12.181-44.32,38.126-44.341,68.438L0,401.464c0,24.813,20.187,45,45,45h60.088  c24.813,0,45-20.187,45-45v-20h211.824v20c0,24.813,20.187,45,45,45H467c24.813,0,45-20.187,45-45L512.045,256.352z M482.02,291.473  h-79.351c5.616-16.28,20.12-30,42.375-30h36.997L482.02,291.473z M474.859,231.473h-29.815c-21.381,0-40.837,8.312-54.783,23.405  c-12.681,13.723-20.049,32.481-20.216,51.463c-0.035,4.001,1.53,7.85,4.347,10.691c2.816,2.842,6.652,4.44,10.653,4.44h94.379  c-6.197,17.453-22.87,29.991-42.415,29.991h-96.964v-75c0-24.813-20.187-45-45-45h-78c-24.813,0-45,20.187-45,45v75H75.01  c-11.981,0-23.273-4.697-31.796-13.226c-4.824-4.827-8.417-10.542-10.628-16.765h94.459c4.001,0,7.836-1.599,10.653-4.44  c2.816-2.841,4.381-6.69,4.346-10.692c-0.167-18.982-7.536-37.739-20.216-51.462c-13.946-15.093-33.402-23.405-54.784-23.405H38.128  c4.878-6.921,11.786-12.429,20.252-15.804c44.122-17.588,118.027-28.088,197.696-28.088c30.817,0,138.826,6.464,195.75,26.257  C461.718,217.277,469.62,223.471,474.859,231.473z M310.045,351.464h-108v-75c0-8.271,6.729-15,15-15h78c8.271,0,15,6.729,15,15  V351.464z M67.045,261.473c22.255,0,36.759,13.72,42.375,30h-79.4l0.021-30H67.045z M114.6,119.98  c8.167-15.506,22.67-24.399,39.79-24.399h203.25c17.132,0,31.64,8.903,39.804,24.426c0,0,27.804,52.958,29.262,55.829  c-66.591-14.819-153.291-18.255-170.629-18.255c-63.841,0-124.597,6.646-170.875,18.271C85.201,175.852,106.38,135.584,114.6,119.98  z M120.088,401.464c0,8.271-6.729,15-15,15H45c-8.271,0-15-6.729-15-15v-35.06c12.931,9.767,28.572,15.06,45.01,15.06h45.079  V401.464z M467,416.464h-60.088c-8.271,0-15-6.729-15-15v-20h45.097c16.865,0,32.447-5.603,44.991-15.04v35.04  C482,409.735,475.271,416.464,467,416.464z" fill="#ffffff" data-original="#000000" style=""/>















</g></svg>
